<svg xmlns="http://www.w3.org/2000/svg" width="40" height="40" viewBox="0 0 40 40"><g fill="none" fill-rule="evenodd"><circle cx="20" cy="20" r="18.5" stroke="#DE5558" stroke-width="3"/><path fill="#424242" fill-rule="nonzero" d="M18.3344271,26.2128131 L18.3344271,22.0128131 L14.318,22.0128131 C13.8333763,21.4128131 13.5910645,20.8128131 13.5910645,20.2128131 C13.5910645,19.6128131 13.8333763,19.0128131 14.318,18.4128131 L18.3344271,18.4128131 L18.3344271,14.2128131 C18.9728521,13.8193101 19.6289138,13.6225586 20.3026123,13.6225586 C20.9763108,13.6225586 21.6508445,13.8193101 22.3262136,14.2128131 L22.3262136,18.4128131 L26.318,18.4128131 C26.7821068,19.0128131 27.0141602,19.6128131 27.0141602,20.2128131 C27.0141602,20.8128131 26.7821068,21.4128131 26.318,22.0128131 L22.3262136,22.0128131 L22.3262136,26.2128131 C21.6338917,26.5811916 20.9593579,26.7653809 20.3026123,26.7653809 C19.6458667,26.7653809 18.989805,26.5811916 18.3344271,26.2128131 Z"/></g></svg>