<?xml version="1.0" encoding="utf-8"?>
<svg width="14px" height="8px" viewbox="0 0 14 8" version="1.1" xmlns:xlink="http://www.w3.org/1999/xlink" xmlns="http://www.w3.org/2000/svg">
  <g id="iconsarrow-bottom">
    <path d="M6.97266 7.4375C7.10026 7.4375 7.20964 7.39193 7.30078 7.30078L7.30078 7.30078L13.7129 0.888672C13.804 0.797526 13.8496 0.688151 13.8496 0.560547C13.8496 0.432943 13.804 0.323568 13.7129 0.232422C13.6217 0.141276 13.5124 0.0957031 13.3848 0.0957031C13.2572 0.0957031 13.1478 0.141276 13.0566 0.232422L13.0566 0.232422L6.97266 6.31641L0.792969 0.136719C0.701823 0.0455729 0.592448 0 0.464844 0C0.33724 0 0.227865 0.0455729 0.136719 0.136719C0.0455729 0.227865 0 0.33724 0 0.464844C0 0.528646 0.0113932 0.590169 0.0341797 0.649414C0.0569661 0.708659 0.0911458 0.761068 0.136719 0.806641L0.136719 0.806641L6.64453 7.30078C6.73568 7.39193 6.84505 7.4375 6.97266 7.4375Z" id="" fill="#2A2A2A" fill-rule="evenodd" stroke="none" />
  </g>
</svg>