<?xml version="1.0" encoding="UTF-8" standalone="no"?><!DOCTYPE svg PUBLIC "-//W3C//DTD SVG 1.1//EN" "http://www.w3.org/Graphics/SVG/1.1/DTD/svg11.dtd"><svg width="21px" height="19px" version="1.1" xmlns="http://www.w3.org/2000/svg" xmlns:xlink="http://www.w3.org/1999/xlink" xml:space="preserve" xmlns:serif="http://www.serif.com/" style="fill-rule:evenodd;clip-rule:evenodd;stroke-linejoin:round;stroke-miterlimit:2;"><g transform="matrix(0.75,0,0,0.75,0,0)"><g id="Group"><g id="iconscarrello-blu" transform="matrix(1,0,0,1,0,3)"><path d="M18.576,22c0.79,0 1.463,-0.273 2.02,-0.818c0.558,-0.545 0.837,-1.208 0.837,-1.99c0,-0.618 -0.186,-1.181 -0.558,-1.69l3.149,0c0.279,0 0.511,-0.091 0.697,-0.273c0.186,-0.181 0.279,-0.404 0.279,-0.668c0,-0.263 -0.093,-0.49 -0.279,-0.681c-0.186,-0.191 -0.418,-0.286 -0.697,-0.286l-16.61,0l0.836,-1.663l13.851,-0.028c0.242,0 0.451,-0.072 0.627,-0.218c0.177,-0.145 0.284,-0.327 0.321,-0.545l1.923,-10.523c0.056,-0.291 -0.014,-0.545 -0.209,-0.763c-0.195,-0.218 -0.441,-0.327 -0.739,-0.327l-17.614,-0.082l-0.139,-0.682c-0.056,-0.218 -0.177,-0.4 -0.362,-0.545c-0.186,-0.145 -0.391,-0.218 -0.614,-0.218l-4.32,0c-0.26,0 -0.487,0.095 -0.682,0.286c-0.195,0.191 -0.293,0.418 -0.293,0.682c0,0.263 0.098,0.49 0.293,0.681c0.195,0.191 0.422,0.287 0.682,0.287l3.512,0l0.669,3.053l1.617,7.66l-2.091,3.326c-0.241,0.327 -0.269,0.664 -0.083,1.009c0.185,0.345 0.483,0.518 0.892,0.518l1.755,0c-0.39,0.509 -0.585,1.072 -0.585,1.69c0,0.782 0.279,1.445 0.836,1.99c0.558,0.545 1.231,0.818 2.021,0.818c0.789,0 1.463,-0.273 2.021,-0.818c0.557,-0.545 0.836,-1.208 0.836,-1.99c0,-0.618 -0.186,-1.181 -0.558,-1.69l4.487,0c-0.39,0.509 -0.585,1.072 -0.585,1.69c0,0.782 0.279,1.445 0.836,1.99c0.558,0.545 1.231,0.818 2.021,0.818Zm-9.88,-9.95l-1.868,-8.697l16.054,0.055l-1.589,8.614l-12.597,0.028Zm0.836,8.014c-0.242,0 -0.451,-0.086 -0.627,-0.259c-0.177,-0.172 -0.265,-0.377 -0.265,-0.613c-0,-0.236 0.088,-0.441 0.265,-0.613c0.176,-0.173 0.385,-0.259 0.627,-0.259c0.241,0 0.446,0.086 0.613,0.259c0.167,0.172 0.251,0.377 0.251,0.613c-0,0.236 -0.084,0.445 -0.251,0.627c-0.167,0.164 -0.372,0.245 -0.613,0.245Zm9.058,0c-0.242,0 -0.451,-0.086 -0.627,-0.259c-0.177,-0.172 -0.265,-0.377 -0.265,-0.613c-0,-0.236 0.088,-0.441 0.265,-0.613c0.176,-0.173 0.385,-0.259 0.627,-0.259c0.241,0 0.446,0.086 0.613,0.259c0.167,0.172 0.251,0.377 0.251,0.613c-0,0.236 -0.084,0.445 -0.251,0.627c-0.167,0.164 -0.372,0.245 -0.613,0.245Z" style="fill-rule:nonzero;"/></g><g id="Oval" transform="matrix(1,0,0,1,19,0)"><path d="M4.5,9c2.485,0 4.5,-2.015 4.5,-4.5c0,-2.485 -2.015,-4.5 -4.5,-4.5c-2.485,0 -4.5,2.015 -4.5,4.5c0,2.485 2.015,4.5 4.5,4.5Z" style="fill:#de5558;"/></g></g></g></svg>