<svg xmlns="http://www.w3.org/2000/svg" width="23" height="33" viewBox="0 0 23 33"><path d="M123.865,1746.1 L127.219,1746.1 C126.984999,1747.34801 126.484504,1748.4595 125.7175,1749.4345 C124.950496,1750.4095 124.001506,1751.1765 122.8705,1751.7355 C121.739494,1752.2945 120.524006,1752.574 119.224,1752.574 C117.741993,1752.574 116.383506,1752.2165 115.1485,1751.5015 C113.913494,1750.7865 112.938504,1749.81151 112.2235,1748.5765 C111.508496,1747.34149 111.151,1745.98301 111.151,1744.501 C111.151,1743.20099 111.430497,1741.98551 111.9895,1740.8545 C112.548503,1739.72349 113.315495,1738.7745 114.2905,1738.0075 C115.265505,1737.2405 116.376994,1736.74 117.625,1736.506 L117.625,1739.86 C116.662995,1740.198 115.876503,1740.7895 115.2655,1741.6345 C114.654497,1742.4795 114.349,1743.43499 114.349,1744.501 C114.349,1745.359 114.569998,1746.165 115.012,1746.919 C115.454002,1747.673 116.051996,1748.271 116.806,1748.713 C117.560004,1749.155 118.365996,1749.376 119.224,1749.376 C120.290005,1749.376 121.245496,1749.0705 122.0905,1748.4595 C122.935504,1747.8485 123.526998,1747.062 123.865,1746.1 Z M119.224,1731.631 C119.224,1730.877 119.470998,1730.1815 119.965,1729.5445 C120.459002,1728.9075 121.069996,1728.498 121.798,1728.316 C122.578004,1728.108 123.344996,1728.225 124.099,1728.667 L124.177,1728.667 L124.177,1728.745 C124.593002,1728.901 124.917999,1729.122 125.152,1729.408 L127.297,1731.787 C128.103004,1732.697 129.090994,1733.4185 130.261,1733.9515 C131.431006,1734.4845 132.626994,1734.751 133.849,1734.751 L133.849,1737.949 C132.496993,1737.949 131.067008,1737.65 129.559,1737.052 C128.154993,1736.48 126.894006,1735.739 125.776,1734.829 L125.776,1740.367 L130.651,1740.367 C131.509004,1740.367 132.256497,1740.6985 132.8935,1741.3615 C133.530503,1742.0245 133.849,1742.785 133.849,1743.643 L133.849,1752.574 L130.651,1752.574 L130.651,1744.501 L122.5,1744.501 C121.615996,1744.501 120.849003,1744.176 120.199,1743.526 C119.548997,1742.876 119.224,1742.109 119.224,1741.225 L119.224,1731.631 Z M119.224,1723.324 C119.224,1722.414 119.542497,1721.6535 120.1795,1721.0425 C120.816503,1720.4315 121.589995,1720.126 122.5,1720.126 C123.410005,1720.126 124.183497,1720.4315 124.8205,1721.0425 C125.457503,1721.6535 125.776,1722.414 125.776,1723.324 C125.776,1724.234 125.457503,1725.0075 124.8205,1725.6445 C124.183497,1726.2815 123.410005,1726.6 122.5,1726.6 C121.589995,1726.6 120.816503,1726.2815 120.1795,1725.6445 C119.542497,1725.0075 119.224,1724.234 119.224,1723.324 Z" transform="translate(-111 -1720)"/></svg>