<svg xmlns="http://www.w3.org/2000/svg" width="21" height="16" viewBox="0 0 21 16"><path fill="#FFF" d="M443.5,3557.007 L451.182,3552.2 L435.818,3552.2 L443.5,3557.007 Z M451.182,3563.7 L451.182,3554.132 L443.5,3558.893 L435.818,3554.132 L435.818,3563.7 L451.182,3563.7 Z M451.182,3550.268 C451.703336,3550.268 452.147998,3550.45966 452.516,3550.843 C452.884002,3551.22634 453.068,3551.67866 453.068,3552.2 L453.068,3563.7 C453.068,3564.22134 452.884002,3564.67366 452.516,3565.057 C452.147998,3565.44034 451.703336,3565.632 451.182,3565.632 L435.818,3565.632 C435.296664,3565.632 434.852002,3565.44034 434.484,3565.057 C434.115998,3564.67366 433.932,3564.22134 433.932,3563.7 L433.932,3552.2 C433.932,3551.67866 434.115998,3551.22634 434.484,3550.843 C434.852002,3550.45966 435.296664,3550.268 435.818,3550.268 L451.182,3550.268 Z" transform="translate(-433 -3550)"/></svg>