<?xml version="1.0" encoding="UTF-8" standalone="no"?><!DOCTYPE svg PUBLIC "-//W3C//DTD SVG 1.1//EN" "http://www.w3.org/Graphics/SVG/1.1/DTD/svg11.dtd"><svg width="40px" height="40px" version="1.1" xmlns="http://www.w3.org/2000/svg" xmlns:xlink="http://www.w3.org/1999/xlink" xml:space="preserve" xmlns:serif="http://www.serif.com/" style="fill-rule:evenodd;clip-rule:evenodd;"><g transform="matrix(-1,0,0,1,40,0)"><circle cx="20" cy="20" r="18.5" style="fill:none;stroke:#de5558;stroke-width:3px;"/><path d="M29.911,20.404c-0.05,0.13 -0.124,0.252 -0.228,0.357l-7.952,7.953c-0.4,0.399 -1.047,0.399 -1.446,0c-0.399,-0.4 -0.399,-1.046 0,-1.446l6.268,-6.268l-14.553,0c-0.552,0 -1,-0.448 -1,-1c0,-0.553 0.448,-1 1,-1l14.555,0l-6.27,-6.271c-0.399,-0.399 -0.399,-1.047 0,-1.446c0.399,-0.4 1.046,-0.4 1.446,0l7.952,7.952c0.105,0.106 0.179,0.23 0.229,0.361c0.055,0.124 0.088,0.259 0.088,0.404c0,0.144 -0.034,0.28 -0.089,0.404Z" style="fill:#5b5b5b;stroke:#5b5b5b;stroke-width:1px;"/></g></svg>