<svg xmlns="http://www.w3.org/2000/svg" width="21" height="21" viewBox="0 0 21 21"><path fill="#FFF" d="M814.529297,3549.53613 C815.742194,3551.42286 815.981775,3553.63898 815.248047,3556.18457 C814.918618,3557.33757 814.394535,3558.48307 813.675781,3559.62109 C812.942054,3560.75912 812.066086,3561.83723 811.047852,3562.85547 C809.59537,3564.32292 808.049325,3565.45719 806.409668,3566.2583 C804.770011,3567.05941 803.194018,3567.45996 801.681641,3567.45996 C800.214185,3567.45996 798.89649,3567.08562 797.728516,3566.33691 C796.320957,3565.40852 795.572266,3564.51758 795.482422,3563.66406 C795.407552,3563.05013 795.617185,3562.50358 796.111328,3562.02441 C796.740238,3561.38053 797.354164,3560.85645 797.953125,3560.45215 C798.806645,3559.85319 799.555335,3559.55371 800.199219,3559.55371 C800.393881,3559.55371 800.581054,3559.58366 800.760742,3559.64355 C800.985353,3559.70345 801.213703,3559.83073 801.445801,3560.02539 C801.677898,3560.22005 802.033526,3560.55696 802.512695,3561.03613 C802.991864,3561.50033 803.298827,3561.78483 803.433594,3561.88965 C803.478516,3561.9196 803.538411,3561.93457 803.613281,3561.93457 C803.957684,3561.93457 804.489254,3561.67253 805.208008,3561.14844 C805.777021,3560.74414 806.518225,3560.10775 807.431641,3559.23926 C808.509771,3558.11621 809.250975,3557.23275 809.655273,3556.58887 C810.08952,3555.90006 810.231772,3555.45085 810.082031,3555.24121 C809.992187,3555.10644 809.707685,3554.79948 809.228516,3554.32031 C808.764321,3553.85612 808.431153,3553.50423 808.229004,3553.26465 C808.026854,3553.02506 807.895834,3552.79297 807.835938,3552.56836 C807.611327,3551.86458 807.828447,3551.00359 808.487305,3549.98535 C808.921552,3549.31152 809.498043,3548.61524 810.216797,3547.89648 C810.63607,3547.47721 811.115232,3547.26758 811.654297,3547.26758 C812.582687,3547.26758 813.541011,3548.02376 814.529297,3549.53613 Z M813.720703,3555.73535 C814.020184,3554.70214 814.125,3553.72136 814.035156,3552.79297 C813.930338,3551.92447 813.645836,3551.13086 813.181641,3550.41211 C812.822264,3549.85807 812.507814,3549.45378 812.238281,3549.19922 C811.998697,3548.97461 811.804037,3548.8623 811.654297,3548.8623 C811.564453,3548.8623 811.459636,3548.9222 811.339844,3549.04199 C810.69596,3549.68588 810.194338,3550.28483 809.834961,3550.83887 C809.46061,3551.42285 809.303385,3551.83463 809.363281,3552.07422 C809.393229,3552.13411 809.460611,3552.23144 809.56543,3552.36621 C809.700196,3552.53093 809.962238,3552.80794 810.351562,3553.19727 L810.396484,3553.24219 C810.905602,3553.7513 811.235025,3554.11068 811.384766,3554.32031 C811.639324,3554.67969 811.751628,3555.09147 811.72168,3555.55566 C811.706706,3555.81022 811.64681,3556.08724 811.541992,3556.38672 C811.4222,3556.71615 811.242514,3557.06803 811.00293,3557.44238 C810.538735,3558.17611 809.737636,3559.14192 808.599609,3560.33984 L808.532227,3560.40723 C807.558914,3561.32064 806.765303,3562.00195 806.151367,3562.45117 C805.64225,3562.82552 805.185549,3563.09505 804.78125,3563.25977 C804.361977,3563.43945 803.972658,3563.5293 803.613281,3563.5293 C803.208982,3563.5293 802.849611,3563.42448 802.535156,3563.21484 L802.490234,3563.19238 C802.280598,3563.04264 801.91374,3562.69824 801.389648,3562.15918 C800.98535,3561.76985 800.700847,3561.50781 800.536133,3561.37305 C800.431315,3561.26823 800.341472,3561.20085 800.266602,3561.1709 C800.251628,3561.15592 800.229167,3561.14844 800.199219,3561.14844 C799.884764,3561.14844 799.43555,3561.35058 798.851562,3561.75488 C798.357419,3562.09929 797.818362,3562.56347 797.234375,3563.14746 C797.099609,3563.26725 797.039713,3563.37956 797.054688,3563.48438 C797.069662,3563.64909 797.196939,3563.85124 797.436523,3564.09082 C797.691082,3564.34538 798.080401,3564.64486 798.604492,3564.98926 C799.502934,3565.57325 800.52864,3565.86523 801.681641,3565.86523 C802.31055,3565.86523 802.961911,3565.77539 803.635742,3565.5957 C804.324548,3565.41601 805.02083,3565.16146 805.724609,3564.83203 C806.443363,3564.47265 807.154619,3564.03841 807.858398,3563.5293 C808.577152,3562.99023 809.265947,3562.39128 809.924805,3561.73242 C810.868169,3560.78906 811.661781,3559.80079 812.305664,3558.76758 C812.949547,3557.74934 813.421222,3556.73861 813.720703,3555.73535 Z" transform="matrix(-1 0 0 1 816.13 -3547)"/></svg>