<svg xmlns="http://www.w3.org/2000/svg" width="21" height="15" viewBox="0 0 21 15"><path fill="#000" d="M8.33214748,10.1015745 L14.0040292,7.17188355 L8.33214748,4.20703627 L8.33214748,10.1015745 Z M10.5001188,0 C14.9180928,0 17.8477838,0.210937751 17.8477838,0.210937751 C18.2579406,0.257812807 19.1602854,0.257812807 19.9571613,1.10156381 C19.9571613,1.10156381 20.6016934,1.73437707 20.7891936,3.1875038 C21.0118501,4.88672458 21.0001313,6.58594535 21.0001313,6.58594535 L21.0001313,8.17969725 C21.0001313,8.17969725 21.0118501,9.87891803 20.7891936,11.5781388 C20.6016934,13.0195468 19.9571613,13.6640788 19.9571613,13.6640788 C19.1602854,14.496111 18.2579406,14.496111 17.8477838,14.5429861 C17.8477838,14.5429861 14.9180928,14.7656426 10.5001188,14.7656426 C5.0391748,14.7187675 3.36339155,14.5547049 3.36339155,14.5547049 C2.89464099,14.4726735 1.83995224,14.496111 1.04307629,13.6640788 C1.04307629,13.6640788 0.398544268,13.0195468 0.211044044,11.5781388 C-0.0116124713,9.87891803 0.000106292644,8.17969725 0.000106292644,8.17969725 L0.000106292644,6.58594535 C0.000106292644,6.58594535 -0.0116124713,4.88672458 0.211044044,3.1875038 C0.398544268,1.73437707 1.04307629,1.10156381 1.04307629,1.10156381 C1.83995224,0.257812807 2.74229706,0.257812807 3.1524538,0.210937751 C3.1524538,0.210937751 6.08214479,0 10.5001188,0 Z" transform="translate(0 .117)"/></svg>