<svg xmlns="http://www.w3.org/2000/svg" width="221" height="382" viewBox="0 0 221 382"><path fill="#C1C1C1" d="M1002.628,2095.18 C1002.628,2076.95191 1017.32185,2055.93412 1046.71,2032.126 C1059.73007,2021.33795 1068.47198,2012.87503 1072.936,2006.737 C1077.40002,2000.59897 1079.632,1993.43804 1079.632,1985.254 C1079.632,1975.20995 1076.28403,1967.02603 1069.588,1960.702 C1062.89197,1954.37797 1054.52205,1951.216 1044.478,1951.216 C1024.0179,1951.216 1008.58005,1965.35186 998.164,1993.624 L936.784,1966.84 C944.596039,1939.31186 958.080904,1918.29407 977.239,1903.786 C996.397096,1889.27793 1019.55386,1882.024 1046.71,1882.024 C1077.95816,1882.024 1104.09089,1891.13791 1125.109,1909.366 C1146.12711,1927.59409 1156.636,1951.02986 1156.636,1979.674 C1156.636,1994.92608 1153.10204,2008.68994 1146.034,2020.966 C1138.96596,2033.24206 1127.06208,2046.63393 1110.322,2061.142 C1093.58192,2075.65007 1082.88702,2085.69397 1078.237,2091.274 C1073.58698,2096.85403 1071.262,2103.17796 1071.262,2110.246 C1071.262,2112.10601 1071.634,2116.01197 1072.378,2121.964 L1008.766,2121.964 C1004.67398,2112.66395 1002.628,2103.73604 1002.628,2095.18 Z M990.352,2211.802 C990.352,2197.29393 995.37395,2185.01805 1005.418,2174.974 C1015.46205,2164.92995 1027.92393,2159.908 1042.804,2159.908 C1057.68407,2159.908 1070.05295,2164.92995 1079.911,2174.974 C1089.76905,2185.01805 1094.698,2197.29393 1094.698,2211.802 C1094.698,2226.68207 1089.76905,2239.05095 1079.911,2248.909 C1070.05295,2258.76705 1057.68407,2263.696 1042.804,2263.696 C1027.92393,2263.696 1015.46205,2258.76705 1005.418,2248.909 C995.37395,2239.05095 990.352,2226.68207 990.352,2211.802 Z" opacity=".1" transform="translate(-936 -1882)"/></svg>