<svg xmlns="http://www.w3.org/2000/svg" width="18" height="19" viewBox="0 0 18 19"><path fill="#FFF" d="M12.0007467,9.00074315 C12.0007467,7.34839743 10.6530889,6.00073958 9.00074315,6.00073958 C7.34839743,6.00073958 6.00073958,7.34839743 6.00073958,9.00074315 C6.00073958,10.6530889 7.34839743,12.0007467 9.00074315,12.0007467 C10.6530889,12.0007467 12.0007467,10.6530889 12.0007467,9.00074315 Z M13.6179362,9.00074315 C13.6179362,11.5554337 11.5554337,13.6179362 9.00074315,13.6179362 C6.44605261,13.6179362 4.38355015,11.5554337 4.38355015,9.00074315 C4.38355015,6.44605261 6.44605261,4.38355015 9.00074315,4.38355015 C11.5554337,4.38355015 13.6179362,6.44605261 13.6179362,9.00074315 Z M14.8835627,4.19604992 C14.8835627,4.79370689 14.4030933,5.27417621 13.8054364,5.27417621 C13.2077794,5.27417621 12.7273101,4.79370689 12.7273101,4.19604992 C12.7273101,3.59839296 13.2077794,3.11792364 13.8054364,3.11792364 C14.4030933,3.11792364 14.8835627,3.59839296 14.8835627,4.19604992 Z M9.00074315,1.61792185 C7.68824159,1.61792185 4.87573823,1.51245297 3.69214307,1.98120353 C3.28198633,2.14526623 2.97729847,2.34448522 2.66089184,2.66089184 C2.34448522,2.97729847 2.14526623,3.28198633 1.98120353,3.69214307 C1.51245297,4.87573823 1.61792185,7.68824159 1.61792185,9.00074315 C1.61792185,10.3132447 1.51245297,13.1257481 1.98120353,14.3093432 C2.14526623,14.7195 2.34448522,15.0241878 2.66089184,15.3405945 C2.97729847,15.6570011 3.28198633,15.8562201 3.69214307,16.0202828 C4.87573823,16.4890333 7.68824159,16.3835645 9.00074315,16.3835645 C10.3132447,16.3835645 13.1257481,16.4890333 14.3093432,16.0202828 C14.7195,15.8562201 15.0241878,15.6570011 15.3405945,15.3405945 C15.6570011,15.0241878 15.8562201,14.7195 16.0202828,14.3093432 C16.4890333,13.1257481 16.3835645,10.3132447 16.3835645,9.00074315 C16.3835645,7.68824159 16.4890333,4.87573823 16.0202828,3.69214307 C15.8562201,3.28198633 15.6570011,2.97729847 15.3405945,2.66089184 C15.0241878,2.34448522 14.7195,2.14526623 14.3093432,1.98120353 C13.1257481,1.51245297 10.3132447,1.61792185 9.00074315,1.61792185 Z M18.0007539,9.00074315 C18.0007539,10.2429321 18.0124726,11.4734023 17.9421601,12.7155913 C17.8718475,14.1569993 17.5437221,15.4343446 16.4890333,16.4890333 C15.4343446,17.5437221 14.1569993,17.8718475 12.7155913,17.9421601 C11.4734023,18.0124726 10.2429321,18.0007539 9.00074315,18.0007539 C7.75855417,18.0007539 6.52808395,18.0124726 5.28589497,17.9421601 C3.844487,17.8718475 2.56714173,17.5437221 1.51245297,16.4890333 C0.457764218,15.4343446 0.129638826,14.1569993 0.0593262426,12.7155913 C-0.0109863412,11.4734023 0.000732422748,10.2429321 0.000732422748,9.00074315 C0.000732422748,7.75855417 -0.0109863412,6.52808395 0.0593262426,5.28589497 C0.129638826,3.844487 0.457764218,2.56714173 1.51245297,1.51245297 C2.56714173,0.457764218 3.844487,0.129638826 5.28589497,0.0593262426 C6.52808395,-0.0109863412 7.75855417,0.000732422748 9.00074315,0.000732422748 C10.2429321,0.000732422748 11.4734023,-0.0109863412 12.7155913,0.0593262426 C14.1569993,0.129638826 15.4343446,0.457764218 16.4890333,1.51245297 C17.5437221,2.56714173 17.8718475,3.844487 17.9421601,5.28589497 C18.0124726,6.52808395 18.0007539,7.75855417 18.0007539,9.00074315 Z" transform="translate(0 .5)"/></svg>