<svg xmlns="http://www.w3.org/2000/svg" width="40" height="40" viewBox="0 0 40 40"><g fill="none" fill-rule="evenodd" transform="matrix(-1 0 0 1 40 0)"><circle cx="20" cy="20" r="18.5" stroke="#FFC80A" stroke-width="3"/><path fill="#5B5B5B" stroke="#5B5B5B" d="M29.911,20.404 C29.861,20.534 29.787,20.656 29.683,20.761 L21.731,28.714 C21.331,29.113 20.684,29.113 20.285,28.714 C19.886,28.314 19.886,27.668 20.285,27.268 L26.553,21 L12,21 C11.448,21 11,20.552 11,20 C11,19.447 11.448,19 12,19 L26.555,19 L20.285,12.729 C19.886,12.33 19.886,11.682 20.285,11.283 C20.684,10.883 21.331,10.883 21.731,11.283 L29.683,19.235 C29.788,19.341 29.862,19.465 29.912,19.596 C29.967,19.72 30,19.855 30,20 C30,20.144 29.966,20.28 29.911,20.404 L29.911,20.404 Z"/></g></svg>