<svg xmlns="http://www.w3.org/2000/svg" width="34" height="35" viewBox="0 0 34 35"><path d="M780.78125,397.476562 C782.968761,397.476562 784.843742,398.296867 786.40625,399.9375 C787.968758,401.578133 788.75,403.531239 788.75,405.796875 C788.75,407.515634 788.261724,409.078118 787.285156,410.484375 C786.308589,411.890632 785.03907,412.906247 783.476562,413.53125 L777.03125,422.90625 C776.718748,423.218752 776.406252,423.375 776.09375,423.375 C775.468747,423.375 775.15625,423.062503 775.15625,422.4375 C775.15625,422.281249 775.234374,422.046877 775.390625,421.734375 L780.78125,414 L776.679688,414 L773.046875,419.15625 C772.734373,419.468752 772.460939,419.625 772.226562,419.625 C771.523434,419.625 771.171875,419.312503 771.171875,418.6875 C771.171875,418.609375 771.249999,418.414064 771.40625,418.101562 L774.335938,414 L770,414 L763.789062,422.90625 C763.476561,423.218752 763.203126,423.375 762.96875,423.375 C762.265621,423.375 761.914062,423.062503 761.914062,422.4375 L762.265625,421.734375 L767.65625,414 L763.4375,414 L759.6875,419.15625 C759.374998,419.468752 759.101564,419.625 758.867188,419.625 C758.242184,419.625 757.929688,419.312503 757.929688,418.6875 C757.929688,418.531249 758.007812,418.296877 758.164062,417.984375 L761.09375,414 C759.374991,413.921875 757.929693,413.238288 756.757812,411.949219 C755.585932,410.66015 755,409.156259 755,407.4375 C755,405.718741 755.585932,404.136726 756.757812,402.691406 C757.929693,401.246087 759.296867,400.484375 760.859375,400.40625 C760.859375,400.249999 760.839844,400.093751 760.800781,399.9375 C760.761719,399.781249 760.742188,399.625001 760.742188,399.46875 C760.742188,396.656236 761.621085,394.312509 763.378906,392.4375 C765.136728,390.562491 767.460923,389.625 770.351562,389.625 C772.851575,389.625 774.941398,390.386711 776.621094,391.910156 C778.30079,393.433601 779.374998,395.328114 779.84375,397.59375 C780.000001,397.59375 780.156249,397.574219 780.3125,397.535156 C780.468751,397.496094 780.624999,397.476562 780.78125,397.476562 Z M780.78125,411.890625 C782.421883,411.890625 783.84765,411.285162 785.058594,410.074219 C786.269537,408.863275 786.875,407.437508 786.875,405.796875 C786.875,404.156242 786.269537,402.691413 785.058594,401.402344 C783.84765,400.113275 782.421883,399.46875 780.78125,399.46875 L780.078125,399.46875 L778.320312,399.703125 L777.96875,397.945312 C777.499998,395.835927 776.601569,394.273443 775.273438,393.257812 C773.945306,392.164057 772.343759,391.617188 770.46875,391.617188 C768.359364,391.617188 766.542976,392.39843 765.019531,393.960938 C763.496086,395.523445 762.734375,397.359364 762.734375,399.46875 L762.734375,402.046875 C762.421873,402.046875 762.070314,402.085937 761.679688,402.164062 L761.09375,402.28125 C759.921869,402.437501 758.945316,403.023432 758.164062,404.039062 C757.382809,405.054693 756.992188,406.148432 756.992188,407.320312 C756.992188,408.570319 757.421871,409.624996 758.28125,410.484375 C759.218755,411.42188 760.23437,411.890625 761.328125,411.890625 L780.78125,411.890625 Z" transform="translate(-755 -389)"/></svg>