<?xml version="1.0" standalone="no"?>
<!DOCTYPE svg PUBLIC "-//W3C//DTD SVG 20010904//EN"
 "http://www.w3.org/TR/2001/REC-SVG-20010904/DTD/svg10.dtd">
<svg version="1.0" xmlns="http://www.w3.org/2000/svg"
 width="310.000000pt" height="310.000000pt" viewBox="0 0 310.000000 310.000000"
 preserveAspectRatio="xMidYMid meet">
<metadata>
Created by potrace 1.11, written by Peter Selinger 2001-2013
</metadata>
<g transform="translate(0.000000,310.000000) scale(0.100000,-0.100000)"
fill="#000000" stroke="none">
<path d="M687 2332 c-15 -2 -45 -20 -67 -41 l-40 -38 0 -156 0 -157 40 0 40 0
0 65 0 65 55 0 55 0 0 -65 0 -65 45 0 45 0 0 137 c0 116 -3 143 -20 177 -28
59 -83 86 -153 78z m71 -94 c7 -7 12 -27 12 -45 l0 -33 -55 0 c-52 0 -55 1
-55 26 0 43 17 64 53 64 18 0 38 -5 45 -12z"/>
<path d="M910 2105 l0 -165 45 0 45 0 0 165 0 165 -45 0 -45 0 0 -165z"/>
<path d="M0 1876 l0 -76 30 0 30 0 0 -335 0 -335 80 0 80 0 0 164 0 163 78 5
c166 10 266 101 265 243 0 69 -23 122 -75 172 -61 59 -93 66 -300 71 l-188 4
0 -76z m355 -90 c37 -16 55 -42 55 -81 0 -62 -47 -95 -135 -95 l-55 0 0 95 0
95 50 0 c28 0 66 -6 85 -14z"/>
<path d="M1209 1936 c-94 -20 -167 -80 -204 -169 -21 -52 -22 -411 0 -463 26
-64 73 -112 140 -145 60 -29 71 -31 142 -27 93 6 142 28 200 90 66 72 75 116
71 335 -3 171 -5 192 -25 229 -31 58 -79 104 -138 130 -66 29 -118 35 -186 20z
m136 -160 c51 -33 60 -61 64 -194 5 -180 -3 -229 -44 -268 -58 -54 -135 -52
-191 7 l-29 30 -3 169 c-4 194 3 221 66 259 42 25 96 24 137 -3z"/>
<path d="M1630 1876 l0 -76 30 0 30 0 0 -335 0 -335 80 0 80 0 0 164 0 163 78
5 c47 3 95 12 122 25 160 71 195 269 68 390 -61 59 -93 66 -300 71 l-188 4 0
-76z m355 -90 c37 -16 55 -42 55 -81 0 -62 -47 -95 -135 -95 l-55 0 0 95 0 95
50 0 c28 0 66 -6 85 -14z"/>
<path d="M2268 1944 c-5 -4 -8 -38 -8 -76 l0 -68 35 0 35 0 0 -335 0 -335 75
0 75 0 0 164 0 163 83 5 c97 6 157 30 204 79 43 45 64 101 64 164 0 96 -53
176 -143 216 -48 21 -72 23 -233 27 -99 2 -183 1 -187 -4z m357 -159 c49 -24
66 -70 43 -120 -17 -38 -58 -55 -128 -55 l-60 0 0 95 0 95 56 0 c31 0 71 -7
89 -15z"/>
<path d="M700 1470 l0 -340 80 0 80 0 -2 338 -3 337 -77 3 -78 3 0 -341z"/>
<path d="M2942 1463 l3 -338 78 -3 77 -3 0 341 0 340 -80 0 -80 0 2 -337z"/>
<path d="M62 954 c-19 -13 -22 -24 -22 -88 0 -83 9 -97 64 -99 55 -2 66 15 66
99 0 64 -3 75 -22 88 -12 9 -32 16 -43 16 -11 0 -31 -7 -43 -16z m66 -87 c3
-66 2 -68 -20 -65 -20 3 -23 9 -26 57 -4 65 2 84 25 79 15 -3 19 -16 21 -71z"/>
<path d="M232 954 c-22 -15 -29 -48 -14 -70 4 -6 21 -19 39 -28 40 -20 48 -33
33 -51 -15 -18 -40 -8 -40 16 0 13 -7 19 -21 19 -16 0 -20 -5 -17 -27 6 -55
100 -66 119 -15 14 37 2 60 -42 83 -27 13 -39 26 -37 37 5 24 31 21 43 -5 14
-33 35 -29 35 7 0 47 -53 66 -98 34z"/>
<path d="M367 964 c-13 -13 -7 -24 13 -24 18 0 20 -7 20 -85 0 -78 2 -85 20
-85 18 0 20 7 20 85 0 79 1 85 21 85 12 0 19 5 17 13 -5 13 -99 23 -111 11z"/>
<path d="M527 964 c-4 -4 -7 -49 -7 -101 l0 -93 56 0 c40 0 55 4 52 13 -3 6
-19 13 -36 15 -26 3 -32 8 -32 28 0 19 5 24 25 24 16 0 25 6 25 15 0 9 -9 15
-25 15 -21 0 -25 5 -25 30 0 27 3 30 31 30 46 0 31 24 -17 28 -22 2 -43 0 -47
-4z"/>
<path d="M672 962 c-9 -6 -12 -33 -10 -98 3 -74 6 -89 20 -92 13 -2 17 5 20
35 4 47 18 47 41 -1 9 -20 24 -36 32 -36 18 0 18 7 4 49 -9 24 -9 35 0 44 16
16 14 72 -4 87 -18 15 -86 23 -103 12z m62 -28 c9 -3 16 -17 16 -30 0 -19 -5
-24 -25 -24 -21 0 -25 5 -25 30 0 31 6 35 34 24z"/>
<path d="M847 964 c-4 -4 -7 -49 -7 -101 0 -87 1 -93 20 -93 20 0 21 5 18 97
-3 89 -12 116 -31 97z"/>
<path d="M964 959 c-9 -15 -44 -150 -44 -171 0 -25 27 -23 35 2 4 12 15 20 30
20 14 0 25 -7 28 -20 6 -25 37 -27 37 -2 0 21 -35 156 -44 171 -4 6 -13 11
-21 11 -8 0 -17 -5 -21 -11z m35 -106 c1 -7 -6 -13 -15 -13 -12 0 -15 6 -10
23 3 12 6 29 7 37 1 15 16 -24 18 -47z"/>
<path d="M1392 957 c-9 -10 -12 -43 -10 -98 3 -70 6 -84 21 -87 13 -3 17 4 17
30 0 32 3 35 43 44 40 9 42 11 45 50 4 48 -11 64 -66 71 -26 4 -42 1 -50 -10z
m62 -23 c34 -13 14 -64 -25 -64 -10 0 -12 53 -2 63 8 8 8 8 27 1z"/>
<path d="M1584 962 c-8 -5 -54 -163 -54 -187 0 -3 9 -5 20 -5 13 0 20 7 20 20
0 15 7 20 26 20 17 0 28 -6 31 -20 3 -11 14 -20 24 -20 23 0 23 -5 -2 93 -25
100 -37 118 -65 99z m26 -98 c0 -13 -6 -24 -13 -24 -9 0 -12 10 -9 30 5 35 22
30 22 -6z"/>
<path d="M1712 957 c-9 -10 -12 -42 -10 -99 3 -75 5 -83 23 -83 16 0 21 8 23
38 4 48 16 47 36 -3 11 -28 22 -40 36 -40 24 0 24 2 4 42 -13 25 -14 36 -5 50
13 20 14 67 3 85 -13 21 -95 28 -110 10z m62 -23 c24 -9 21 -54 -4 -54 -16 0
-20 7 -20 30 0 32 1 33 24 24z"/>
<path d="M1891 951 c-16 -16 -21 -33 -21 -75 0 -74 12 -102 47 -109 44 -8 77
12 81 51 3 27 0 32 -17 32 -16 0 -21 -6 -21 -26 0 -21 -4 -25 -22 -22 -20 3
-23 10 -26 59 -2 40 1 59 12 68 19 16 36 6 36 -20 0 -12 7 -19 20 -19 14 0 20
7 20 23 0 34 -13 47 -52 53 -28 5 -40 2 -57 -15z"/>
<path d="M2060 950 c-16 -16 -20 -33 -20 -83 0 -81 13 -100 69 -100 26 0 47 6
52 14 5 8 9 49 9 91 0 66 -3 79 -19 88 -31 16 -69 12 -91 -10z m68 -84 c3 -65
2 -67 -20 -64 -20 3 -23 9 -26 56 -3 54 10 86 32 79 6 -2 12 -33 14 -71z"/>
<path d="M2298 959 c-15 -8 -18 -25 -18 -94 0 -51 4 -87 11 -91 6 -4 30 -7 52
-7 48 0 69 23 65 68 -3 26 -8 30 -35 33 -25 2 -33 -1 -33 -12 0 -9 7 -16 16
-16 24 0 12 -35 -14 -38 -21 -3 -22 0 -22 62 0 76 14 91 46 51 22 -27 44 -27
44 1 0 41 -70 68 -112 43z"/>
<path d="M2463 963 c-9 -3 -13 -33 -13 -99 0 -87 1 -94 20 -94 19 0 20 7 20
94 0 94 -4 107 -27 99z"/>
<path d="M2562 954 c-19 -13 -22 -24 -22 -88 0 -84 11 -101 66 -99 55 2 64 16
64 99 0 64 -3 75 -22 88 -12 9 -32 16 -43 16 -11 0 -31 -7 -43 -16z m66 -87
c3 -66 3 -67 -23 -67 -24 0 -25 2 -25 63 0 68 5 79 30 75 11 -3 16 -19 18 -71z"/>
<path d="M2730 950 c-16 -16 -20 -33 -20 -83 0 -77 13 -99 62 -100 45 -1 68
17 68 54 0 22 -5 29 -20 29 -15 0 -20 -7 -20 -26 0 -21 -4 -25 -22 -22 -20 3
-23 10 -26 59 -2 40 1 59 12 68 19 16 36 6 36 -20 0 -12 7 -19 20 -19 28 0 27
44 -2 64 -31 22 -64 20 -88 -4z"/>
<path d="M2891 956 c-8 -9 -11 -45 -9 -97 3 -70 6 -84 21 -87 14 -3 17 4 17
37 0 37 3 41 24 41 21 0 25 -5 28 -37 2 -27 8 -39 21 -41 15 -3 17 6 17 91 0
51 -3 97 -7 100 -13 13 -33 -16 -33 -49 0 -30 -3 -34 -25 -34 -22 0 -25 4 -25
39 0 44 -12 58 -29 37z"/>
<path d="M3072 961 c-9 -5 -12 -34 -10 -97 3 -75 6 -89 21 -92 15 -3 17 6 17
92 0 95 -5 112 -28 97z"/>
<path d="M1170 946 c-6 -8 -10 -25 -8 -38 2 -13 -5 -31 -15 -41 -13 -13 -17
-27 -12 -45 11 -48 60 -66 106 -41 15 8 24 7 35 -2 25 -21 42 6 20 30 -13 14
-16 28 -12 46 5 21 3 25 -14 25 -11 0 -20 -7 -20 -16 0 -8 -5 -12 -11 -9 -7 5
-5 13 5 24 19 21 21 52 4 69 -17 17 -63 15 -78 -2z m54 -25 c3 -5 -1 -14 -9
-21 -13 -10 -15 -9 -15 9 0 21 14 28 24 12z m-12 -78 c22 -20 23 -29 3 -37
-22 -8 -45 4 -45 23 0 33 15 38 42 14z"/>
</g>
</svg>
