<?xml version="1.0" encoding="UTF-8" standalone="no"?><!DOCTYPE svg PUBLIC "-//W3C//DTD SVG 1.1//EN" "http://www.w3.org/Graphics/SVG/1.1/DTD/svg11.dtd"><svg width="162px" height="160px" version="1.1" xmlns="http://www.w3.org/2000/svg" xmlns:xlink="http://www.w3.org/1999/xlink" xml:space="preserve" xmlns:serif="http://www.serif.com/" style="fill-rule:evenodd;clip-rule:evenodd;stroke-linejoin:round;stroke-miterlimit:1.41421;"><g transform="matrix(1,0,0,1,0,-0.8192)"><g transform="matrix(1,0,0,1,0,0.389)"><path d="M161.566,80.397c0,44.164 -36.168,79.966 -80.783,79.966c-44.615,0 -80.783,-35.802 -80.783,-79.966c0,-44.165 36.168,-79.967 80.783,-79.967c44.615,0 80.783,35.802 80.783,79.967" style="fill:#fecb00;"/></g><g transform="matrix(1,0,0,1,0,0.8192)"><path d="M121.396,63.698c5.437,0 9.845,4.202 9.845,9.385c0,5.182 -4.408,9.384 -9.845,9.384l-4.04,0l0,13.236l-5.806,0l0,-26.471l-2.523,0l0,-5.533l2.902,0l0,-0.001l9.467,0Zm-89.264,0c5.437,0 9.845,4.202 9.845,9.385c0,5.182 -4.408,9.384 -9.845,9.384l-4.041,0l0,13.236l-5.805,0l0,-26.471l-2.523,0l0,-5.533l2.902,0l0,-0.001l9.467,0Zm37.748,0.001c6.164,0.006 11.159,4.767 11.165,10.642l0,10.72c0,5.878 -4.998,10.642 -11.165,10.642c-6.166,0 -11.165,-4.764 -11.165,-10.642l0,-10.72c0.007,-5.875 5.001,-10.636 11.165,-10.642Zm26.425,-0.001c5.438,0 9.847,4.202 9.847,9.385c0,5.182 -4.409,9.384 -9.847,9.384l-4.04,0l0,13.236l-5.805,0l0,-0.142l-0.001,0l0.001,-26.329l-2.524,0l0,-5.533l2.903,0l0,-0.001l9.466,0Zm-21.065,21.363c-0.003,2.821 -2.401,5.106 -5.36,5.109c-2.958,-0.003 -5.356,-2.288 -5.36,-5.109l0,-10.72c0,-2.821 2.4,-5.109 5.36,-5.109c2.96,0 5.36,2.288 5.36,5.109l0,10.72Zm46.156,-8.127c2.231,0 4.04,-1.724 4.04,-3.851c0,-2.128 -1.809,-3.851 -4.04,-3.851l-4.04,0l0,7.702l4.04,0Zm-89.264,0c2.231,0 4.04,-1.724 4.04,-3.851c0,-2.128 -1.809,-3.851 -4.04,-3.851l-4.041,0l0,7.702l4.041,0Zm64.173,0c2.232,0 4.041,-1.724 4.041,-3.851c0,-2.128 -1.809,-3.851 -4.041,-3.851l-4.04,0l0,7.702l4.04,0Z" style="fill:#1e1e1c;"/></g><rect x="47.33" y="70.031" width="6.005" height="26.446" style="fill:#1e1e1c;"/><rect x="135.729" y="70.119" width="6.004" height="26.445" style="fill:#1e1e1c;"/><path d="M45.56,56.289l0,-1.972c0,-1.252 1.07,-2.27 2.387,-2.27c1.316,0 2.387,1.018 2.387,2.27l0,1.972l-4.774,0Zm4.774,8.222l2.999,0l0,-10.194c-0.002,-2.831 -2.419,-5.137 -5.386,-5.139c-2.967,0.002 -5.384,2.308 -5.387,5.139l0,10.211l3,0l0,-5.371l4.774,0l0,5.354Z" style="fill:#1e1e1c;"/><rect x="55.826" y="51.784" width="3.094" height="12.73" style="fill:#1e1e1c;"/></g></svg>