<?xml version="1.0" encoding="UTF-8" standalone="no"?><!DOCTYPE svg PUBLIC "-//W3C//DTD SVG 1.1//EN" "http://www.w3.org/Graphics/SVG/1.1/DTD/svg11.dtd"><svg width="180px" height="186px" version="1.1" xmlns="http://www.w3.org/2000/svg" xmlns:xlink="http://www.w3.org/1999/xlink" xml:space="preserve" xmlns:serif="http://www.serif.com/" style="fill-rule:evenodd;clip-rule:evenodd;stroke-linejoin:round;stroke-miterlimit:1.41421;"><g transform="matrix(1,0,0,1,0,-124)"><g><g transform="matrix(1,0,0,1,0,149.607)"><path d="M161.566,80.397c0,44.164 -36.168,79.966 -80.783,79.966c-44.615,0 -80.783,-35.802 -80.783,-79.966c0,-44.165 36.168,-79.967 80.783,-79.967c44.615,0 80.783,35.802 80.783,79.967" style="fill:#fecb00;"/></g><g transform="matrix(1,0,0,1,0,149.218)"><path d="M67.211,106.041l-0.183,-0.185c0,-0.001 -0.001,-0.002 -0.003,-0.003c-0.322,-0.317 -0.367,-0.632 -0.367,-0.924c0,-0.499 0.241,-0.72 0.783,-0.72c0.556,0 0.773,0.198 0.773,0.711c0,0.549 -0.212,0.797 -1.003,1.121m-1.57,2.163c0,-0.709 0.226,-1.007 0.986,-1.25l1.927,1.879c-0.297,0.461 -0.776,0.695 -1.429,0.695c-1.054,0 -1.484,-0.384 -1.484,-1.324m5.439,1.512l-1.188,-1.116c0.185,-0.538 0.341,-1.365 0.4,-1.934c0.007,-0.072 -0.017,-0.145 -0.067,-0.199c-0.048,-0.054 -0.119,-0.086 -0.192,-0.088l-0.583,-0.01c-0.127,0.002 -0.26,0.107 -0.268,0.246c-0.02,0.336 -0.094,0.812 -0.177,1.179l-1.025,-1.003c0.87,-0.412 1.364,-0.903 1.364,-1.901c0,-1.085 -0.693,-1.707 -1.903,-1.707c-1.175,0 -1.904,0.639 -1.904,1.669c0,0.513 0.061,0.874 0.367,1.302c-0.844,0.325 -1.383,0.855 -1.383,2.079c0,1.602 0.836,2.349 2.634,2.349c0.962,0 1.698,-0.346 2.193,-1.029l1.001,0.938c0.052,0.049 0.133,0.07 0.193,0.072c0.071,-0.004 0.138,-0.034 0.186,-0.086l0.365,-0.399c0.096,-0.105 0.09,-0.265 -0.013,-0.362m-47.156,0.145c0.713,0 1.098,-0.227 1.098,-0.896l0,-4.146c0,-0.669 -0.385,-0.896 -1.098,-0.896c-0.713,0 -1.098,0.227 -1.098,0.896l0,4.146c0,0.669 0.385,0.896 1.098,0.896m-0.055,-6.834l0.109,0c1.455,0 2.333,0.486 2.333,1.598l0,4.534c0,1.111 -0.878,1.597 -2.333,1.597l-0.109,0c-1.454,0 -2.332,-0.486 -2.332,-1.597l0,-4.534c0,-1.123 0.878,-1.598 2.332,-1.598m8.477,2.753l-0.356,0c-0.303,0 -0.453,-0.13 -0.453,-0.356l0,-0.67c0,-0.604 -0.371,-0.842 -1.029,-0.842c-0.659,0 -1.029,0.238 -1.029,0.842l0,0.518c0,0.454 0.205,0.616 0.754,0.864l1.248,0.54c0.824,0.367 1.345,0.734 1.345,1.458l0,1.047c0,1.133 -0.836,1.576 -2.291,1.576l-0.027,0c-1.455,0 -2.291,-0.432 -2.291,-1.576l0,-0.929c0,-0.226 0.151,-0.357 0.452,-0.357l0.357,0c0.302,0 0.453,0.131 0.453,0.357l0,0.755c0,0.594 0.37,0.864 1.042,0.864c0.672,0 1.043,-0.27 1.043,-0.864l0,-0.593c0,-0.453 -0.206,-0.648 -0.769,-0.896l-1.235,-0.54c-0.877,-0.399 -1.343,-0.723 -1.343,-1.446l0,-0.95c0,-1.091 0.96,-1.555 2.277,-1.555l0.027,0c1.317,0 2.277,0.464 2.277,1.555l0,0.842c0,0.226 -0.15,0.356 -0.452,0.356m6.35,-2.31l0,0.183c0,0.238 -0.151,0.357 -0.452,0.357l-1.222,0l0,6.304c0,0.226 -0.164,0.356 -0.452,0.356l-0.384,0c-0.289,0 -0.453,-0.13 -0.453,-0.356l0,-6.304l-1.221,0c-0.289,0 -0.453,-0.119 -0.453,-0.357l0,-0.183c0,-0.227 0.164,-0.357 0.453,-0.357l3.732,0c0.301,0 0.452,0.13 0.452,0.357m5.143,7.2l-3.183,0c-0.301,0 -0.453,-0.13 -0.453,-0.356l0,-6.845c0,-0.226 0.152,-0.355 0.453,-0.355l3.142,0c0.302,0 0.453,0.129 0.453,0.355l0,0.184c0,0.238 -0.151,0.356 -0.453,0.356l-2.305,0l0,2.376l1.88,0c0.302,0 0.452,0.129 0.452,0.356l0,0.194c0,0.226 -0.15,0.356 -0.452,0.356l-1.88,0l0,2.483l2.346,0c0.302,0 0.452,0.119 0.452,0.356l0,0.184c0,0.226 -0.15,0.356 -0.452,0.356m3.497,-3.984l1.056,0c0.714,0 1.098,-0.226 1.098,-0.895l0,-0.886c0,-0.669 -0.384,-0.896 -1.098,-0.896l-1.056,0l0,2.677Zm3.224,3.984l-0.384,0c-0.26,0 -0.426,-0.086 -0.508,-0.291l-1.207,-2.807l-0.014,0l-1.111,0l0,2.742c0,0.226 -0.164,0.356 -0.452,0.356l-0.384,0c-0.303,0 -0.453,-0.13 -0.453,-0.356l0,-6.845c0,-0.226 0.15,-0.356 0.453,-0.356l1.947,0c1.455,0 2.332,0.486 2.332,1.598l0,1.263c0,0.756 -0.411,1.22 -1.125,1.446l1.29,2.84c0.096,0.238 -0.055,0.41 -0.384,0.41Zm3.181,0l-0.384,0c-0.302,0 -0.453,-0.13 -0.453,-0.356l0,-6.845c0,-0.226 0.151,-0.355 0.453,-0.355l0.384,0c0.288,0 0.453,0.129 0.453,0.355l0,6.845c0,0.226 -0.165,0.356 -0.453,0.356m5.61,-2.634l-0.837,-3.649l-0.837,3.649l1.674,0Zm1.413,2.635l-0.397,0c-0.275,0 -0.44,-0.108 -0.495,-0.324l-0.329,-1.458l-2.071,0l-0.33,1.458c-0.041,0.216 -0.219,0.324 -0.48,0.324l-0.343,0c-0.301,0 -0.452,-0.141 -0.397,-0.389l1.728,-6.845c0.055,-0.216 0.234,-0.324 0.494,-0.324l0.768,0c0.261,0 0.439,0.108 0.494,0.324l1.756,6.845c0.068,0.248 -0.096,0.389 -0.398,0.389Zm17.095,-5.766c0,-0.669 -0.384,-0.896 -1.098,-0.896l-1.056,0l0,2.743l1.056,0c0.714,0 1.098,-0.228 1.098,-0.886l0,-0.961Zm1.29,-0.194l0,1.349c0,1.112 -0.879,1.598 -2.333,1.598l-1.111,0l0,2.656c0,0.227 -0.165,0.356 -0.452,0.356l-0.385,0c-0.301,0 -0.453,-0.129 -0.453,-0.356l0,-6.844c0,-0.227 0.152,-0.357 0.453,-0.357l1.948,0c1.454,0 2.333,0.486 2.333,1.598Zm4.401,3.325l-0.836,-3.649l-0.837,3.649l1.673,0Zm1.414,2.635l-0.398,0c-0.275,0 -0.44,-0.108 -0.494,-0.324l-0.33,-1.458l-2.071,0l-0.329,1.458c-0.041,0.216 -0.22,0.324 -0.48,0.324l-0.343,0c-0.302,0 -0.453,-0.141 -0.398,-0.389l1.728,-6.845c0.055,-0.216 0.233,-0.324 0.495,-0.324l0.767,0c0.262,0 0.439,0.108 0.495,0.324l1.755,6.845c0.069,0.248 -0.096,0.389 -0.397,0.389Zm3.359,-3.985l1.056,0c0.714,0 1.097,-0.226 1.097,-0.895l0,-0.886c0,-0.669 -0.383,-0.896 -1.097,-0.896l-1.056,0l0,2.677Zm3.224,3.984l-0.384,0c-0.26,0 -0.426,-0.086 -0.507,-0.291l-1.208,-2.807l-0.014,0l-1.111,0l0,2.742c0,0.226 -0.164,0.356 -0.453,0.356l-0.383,0c-0.303,0 -0.454,-0.13 -0.454,-0.356l0,-6.845c0,-0.226 0.151,-0.356 0.454,-0.356l1.947,0c1.455,0 2.332,0.486 2.332,1.598l0,1.263c0,0.756 -0.411,1.22 -1.124,1.446l1.289,2.84c0.096,0.238 -0.055,0.41 -0.384,0.41Zm6.844,-2.688l0,1.177c0,1.134 -0.878,1.598 -2.331,1.598l-0.028,0c-1.454,0 -2.332,-0.454 -2.332,-1.598l0,-4.535c0,-1.09 0.878,-1.597 2.332,-1.597l0.028,0c1.453,0 2.331,0.507 2.331,1.597l0,0.994c0,0.226 -0.151,0.356 -0.453,0.356l-0.383,0c-0.289,0 -0.454,-0.13 -0.454,-0.356l0,-0.799c0,-0.659 -0.356,-0.896 -1.055,-0.896c-0.701,0 -1.057,0.237 -1.057,0.896l0,4.146c0,0.658 0.356,0.896 1.057,0.896c0.699,0 1.055,-0.238 1.055,-0.896l0,-0.983c0,-0.227 0.165,-0.357 0.454,-0.357l0.383,0c0.302,0 0.453,0.13 0.453,0.357m4.375,1.879c0.713,0 1.098,-0.227 1.098,-0.896l0,-4.146c0,-0.669 -0.385,-0.896 -1.098,-0.896c-0.713,0 -1.098,0.227 -1.098,0.896l0,4.146c0,0.669 0.385,0.896 1.098,0.896m-0.055,-6.834l0.11,0c1.454,0 2.332,0.486 2.332,1.598l0,4.534c0,1.111 -0.878,1.597 -2.332,1.597l-0.11,0c-1.454,0 -2.332,-0.486 -2.332,-1.597l0,-4.534c0,-1.123 0.878,-1.598 2.332,-1.598m11.634,4.167l0,1.964c0,1.134 -0.878,1.598 -2.332,1.598l-0.11,0c-1.454,0 -2.332,-0.453 -2.332,-1.598l0,-4.533c0,-1.091 0.878,-1.598 2.332,-1.598l0.11,0c1.454,0 2.332,0.507 2.332,1.598l0,0.69c0,0.227 -0.151,0.357 -0.453,0.357l-0.383,0c-0.289,0 -0.454,-0.13 -0.454,-0.357l0,-0.496c0,-0.67 -0.384,-0.896 -1.097,-0.896c-0.713,0 -1.098,0.226 -1.098,0.896l0,4.145c0,0.67 0.385,0.896 1.098,0.896c0.713,0 1.097,-0.226 1.097,-0.896l0,-1.263l-0.699,0c-0.288,0 -0.453,-0.119 -0.453,-0.356l0,-0.151c0,-0.237 0.165,-0.356 0.453,-0.356l1.536,0c0.302,0 0.453,0.119 0.453,0.356m2.962,3.476l-0.384,0c-0.302,0 -0.452,-0.13 -0.452,-0.356l0,-6.845c0,-0.226 0.15,-0.355 0.452,-0.355l0.384,0c0.288,0 0.453,0.129 0.453,0.355l0,6.845c0,0.226 -0.165,0.356 -0.453,0.356m4.993,-0.809c0.713,0 1.097,-0.227 1.097,-0.896l0,-4.146c0,-0.669 -0.384,-0.896 -1.097,-0.896c-0.714,0 -1.098,0.227 -1.098,0.896l0,4.146c0,0.669 0.384,0.896 1.098,0.896m-0.055,-6.834l0.109,0c1.455,0 2.333,0.486 2.333,1.598l0,4.534c0,1.111 -0.878,1.597 -2.333,1.597l-0.109,0c-1.455,0 -2.332,-0.486 -2.332,-1.597l0,-4.534c0,-1.123 0.877,-1.598 2.332,-1.598m9.176,4.955l0,1.177c0,1.134 -0.878,1.598 -2.332,1.598l-0.027,0c-1.455,0 -2.332,-0.454 -2.332,-1.598l0,-4.535c0,-1.09 0.877,-1.597 2.332,-1.597l0.027,0c1.454,0 2.332,0.507 2.332,1.597l0,0.994c0,0.226 -0.151,0.356 -0.452,0.356l-0.385,0c-0.288,0 -0.453,-0.13 -0.453,-0.356l0,-0.799c0,-0.659 -0.357,-0.896 -1.056,-0.896c-0.7,0 -1.056,0.237 -1.056,0.896l0,4.146c0,0.658 0.356,0.896 1.056,0.896c0.699,0 1.056,-0.238 1.056,-0.896l0,-0.983c0,-0.227 0.165,-0.357 0.453,-0.357l0.385,0c0.301,0 0.452,0.13 0.452,0.357m2.495,-4.869l0.385,0c0.287,0 0.452,0.13 0.452,0.357l0,2.904l2.264,0l0,-2.904c0,-0.227 0.164,-0.357 0.453,-0.357l0.383,0c0.303,0 0.454,0.13 0.454,0.357l0,6.844c0,0.227 -0.151,0.356 -0.454,0.356l-0.383,0c-0.289,0 -0.453,-0.129 -0.453,-0.356l0,-3.034l-2.264,0l0,3.034c0,0.227 -0.165,0.356 -0.452,0.356l-0.385,0c-0.301,0 -0.453,-0.129 -0.453,-0.356l0,-6.844c0,-0.227 0.152,-0.357 0.453,-0.357m7.434,7.557l-0.384,0c-0.302,0 -0.452,-0.13 -0.452,-0.356l0,-6.845c0,-0.226 0.15,-0.355 0.452,-0.355l0.384,0c0.289,0 0.453,0.129 0.453,0.355l0,6.845c0,0.226 -0.164,0.356 -0.453,0.356m-19.954,-32.917l-4.04,0l0,-7.702l4.04,0c2.231,0 4.04,1.723 4.04,3.851c0,2.127 -1.809,3.851 -4.04,3.851m0,-13.236l-9.467,0l0,0.001l-2.902,0l0,5.533l2.523,0l0,26.471l5.806,0l0,-0.142l0,-13.093l0,-0.001l4.04,0c5.437,0 9.845,-4.202 9.845,-9.384c0,-5.183 -4.408,-9.385 -9.845,-9.385m-46.156,21.363c-0.003,2.821 -2.401,5.106 -5.36,5.109c-2.958,-0.003 -5.356,-2.288 -5.36,-5.109l0,-10.72c0,-2.821 2.4,-5.109 5.36,-5.109c2.96,0 5.36,2.288 5.36,5.109l0,10.72Zm-5.36,-21.362c-6.164,0.006 -11.158,4.767 -11.165,10.642l0,10.72c0,5.878 4.999,10.642 11.165,10.642c6.167,0 11.165,-4.764 11.165,-10.642l0,-10.72c-0.006,-5.875 -5.001,-10.636 -11.165,-10.642Zm-37.748,13.235l-4.041,0l0,-7.702l4.041,0c2.231,0 4.04,1.723 4.04,3.851c0,2.127 -1.809,3.851 -4.04,3.851m0,-13.236l-9.467,0l0,0.001l-2.902,0l0,5.533l2.523,0l0,26.471l5.805,0l0,-0.142l0,-13.093l0,-0.001l4.041,0c5.437,0 9.845,-4.202 9.845,-9.384c0,-5.183 -4.408,-9.385 -9.845,-9.385m64.173,13.236l-4.04,0l0,-7.702l4.04,0c2.232,0 4.041,1.723 4.041,3.851c0,2.127 -1.809,3.851 -4.041,3.851m0,-13.236l-9.466,0l0,0.001l-2.903,0l0,5.533l2.524,0l-0.001,26.329l0.001,0l0,0.142l5.805,0l0,-0.142l0,-13.093l0,-0.001l4.04,0c5.438,0 9.847,-4.202 9.847,-9.384c0,-5.183 -4.409,-9.385 -9.847,-9.385" style="fill:#1e1e1c;"/></g><g transform="matrix(1,0,0,1,0,149.218)"><rect x="47.33" y="70.031" width="6.005" height="26.446" style="fill:#1e1e1c;"/></g><g transform="matrix(1,0,0,1,0,149.218)"><rect x="135.729" y="70.119" width="6.004" height="26.445" style="fill:#1e1e1c;"/></g><g transform="matrix(1,0,0,1,0,149.218)"><path d="M45.56,56.289l0,-1.972c0,-1.252 1.07,-2.27 2.387,-2.27c1.316,0 2.387,1.018 2.387,2.27l0,1.972l-4.774,0Zm4.774,8.222l2.999,0l0,-10.194c-0.002,-2.831 -2.419,-5.137 -5.386,-5.139c-2.967,0.002 -5.384,2.308 -5.387,5.139l0,10.211l3,0l0,-5.371l4.774,0l0,5.354Z" style="fill:#1e1e1c;"/></g><g transform="matrix(1,0,0,1,0,149.218)"><rect x="55.826" y="51.784" width="3.094" height="12.73" style="fill:#1e1e1c;"/></g></g><g transform="matrix(0.23755,0,0,0.23755,111.4,149.105)"><g transform="matrix(1.00094,0,0,1.00094,-469,-103.7)"><path d="M754.668,170.87c0,93.838 -76.071,169.909 -169.909,169.909c-93.839,0 -169.909,-76.071 -169.909,-169.909c0,-93.838 76.07,-169.909 169.909,-169.909c93.838,0 169.909,76.071 169.909,169.909" style="fill:#ec6608;"/></g><g transform="matrix(1,0,0,1,-469,-96.039)"><path d="M613.635,242.696l-1.475,-3.429l-10.766,0l-1.475,3.429l-5.781,0l11.762,-26.793l1.794,0l11.722,26.793l-5.781,0Zm-3.349,-7.854l-3.509,-8.892l-3.509,8.892l7.018,0Zm29.769,-18.461l5.382,0l0,26.794l-1.794,0l-15.231,-16.268l0,15.789l-5.382,0l0,-26.793l1.754,0l15.271,16.187l0,-15.709Zm28.453,0l5.382,0l0,26.794l-1.794,0l-15.231,-16.268l0,15.789l-5.382,0l0,-26.793l1.754,0l15.271,16.187l0,-15.709Zm11.428,26.315l0,-26.315l5.382,0l0,26.315l-5.382,0Z" style="fill:#fff;fill-rule:nonzero;"/></g><path d="M112.365,102.68c0,15.033 -5.489,27.394 -16.46,37.09c-10.974,9.696 -24.504,14.545 -40.586,14.545c-12.327,0 -23.338,-3.006 -33.031,-9.02c-9.696,-6.01 -17.102,-14.28 -22.21,-24.803l21.194,-14.882c8.868,13.681 19.917,20.519 33.145,20.519c7.815,0 14.206,-2.065 19.167,-6.199c4.96,-4.133 7.439,-9.732 7.439,-16.799c0,-14.28 -10.146,-21.421 -30.439,-21.421l-34.723,0l0,-78.917l87.935,0l0,27.508l-58.624,0l0,27.057c6.012,-1.2 11.649,-1.803 16.913,-1.803c13.675,0 25.477,4.249 35.398,12.74c9.921,8.493 14.882,19.954 14.882,34.385m2.403,-43.408c-0.229,-16.02 5.593,-29.823 17.467,-41.411c11.871,-11.587 25.929,-17.212 42.177,-16.871c16.245,-0.341 30.359,5.284 42.347,16.871c11.986,11.588 17.863,25.391 17.638,41.411c0.225,16.018 -5.652,29.822 -17.638,41.41c-11.988,11.588 -26.102,17.211 -42.347,16.87c-16.248,0.341 -30.306,-5.282 -42.177,-16.87c-11.874,-11.588 -17.696,-25.392 -17.467,-41.41" style="fill:#fff;"/><path d="M205.473,59.272c-0.001,-9.13 -2.94,-16.684 -8.816,-22.658c-5.88,-5.972 -13.237,-8.961 -22.076,-8.961c-8.489,0 -16.61,3.261 -22.145,8.889c-5.829,5.926 -8.742,13.501 -8.742,22.73c0,9.228 2.913,16.805 8.742,22.729c5.827,5.926 13.209,8.887 22.145,8.887c8.839,0 16.196,-2.961 22.076,-8.887c5.876,-5.924 8.815,-13.501 8.815,-22.729" style="fill:#ec6608;"/></g></g></svg>