<svg xmlns="http://www.w3.org/2000/svg" width="141" height="119" viewBox="0 0 141 119"><path fill="#C1C1C1" d="M652.022461,960.544922 L652.022461,954.550781 C654.202159,929.120967 666.37196,904.781366 688.532227,881.53125 L699.975586,889.705078 C685.08098,904.962967 677.45215,917.677684 677.088867,927.849609 C677.45215,932.935572 681.811482,936.568348 690.166992,938.748047 C691.620124,939.11133 693.254874,939.656246 695.071289,940.382812 C708.512763,945.105492 715.233398,954.369072 715.233398,968.173828 C715.233398,972.533225 714.325204,977.074195 712.508789,981.796875 C707.059543,993.785216 697.977603,999.779297 685.262695,999.779297 C681.629865,999.779297 677.997088,999.23438 674.364258,998.144531 C659.469652,993.421851 652.022461,980.888774 652.022461,960.544922 Z M729.401367,960.544922 C729.401367,958.728507 729.401367,956.73048 729.401367,954.550781 C731.581066,929.120967 743.750866,904.781366 765.911133,881.53125 L777.354492,889.705078 C762.82317,904.599684 755.375978,917.3144 755.012695,927.849609 C755.375978,932.935572 759.553671,936.568348 767.545898,938.748047 C768.999031,939.11133 770.63378,939.656246 772.450195,940.382812 C785.891669,945.105492 792.612305,954.369072 792.612305,968.173828 C792.612305,972.533225 791.704111,977.074195 789.887695,981.796875 C784.438449,993.785216 775.356509,999.779297 762.641602,999.779297 C759.008771,999.779297 755.375995,999.23438 751.743164,998.144531 C736.848558,993.421851 729.401367,980.888774 729.401367,960.544922 Z" opacity=".21" transform="translate(-652 -881)"/></svg>