<svg xmlns="http://www.w3.org/2000/svg" width="14" height="13" viewBox="0 0 14 13"><path fill="#868686" d="M7.3828125,6.2890625 L12.34375,11.2695312 C12.5000008,11.4127611 12.578125,11.5917958 12.578125,11.8066406 C12.578125,12.0214854 12.503256,12.2037753 12.3535156,12.3535156 C12.2037753,12.503256 12.0214854,12.578125 11.8066406,12.578125 C11.5917958,12.578125 11.4127611,12.5000008 11.2695312,12.34375 L6.2890625,7.36328125 L1.30859375,12.34375 C1.16536387,12.5000008 0.986329199,12.578125 0.771484375,12.578125 C0.556639551,12.578125 0.374349707,12.503256 0.224609375,12.3535156 C0.074869043,12.2037753 0,12.0214854 0,11.8066406 C0,11.5917958 0.0781242187,11.4127611 0.234375,11.2695312 L5.1953125,6.2890625 L0.234375,1.30859375 C0.0781242187,1.16536387 0,0.986329199 0,0.771484375 C0,0.556639551 0.074869043,0.374349707 0.224609375,0.224609375 C0.374349707,0.074869043 0.556639551,0 0.771484375,0 C0.986329199,0 1.16536387,0.0781242187 1.30859375,0.234375 L6.2890625,5.1953125 L11.2695312,0.234375 C11.4127611,0.0781242187 11.5917958,0 11.8066406,0 C12.0214854,0 12.2037753,0.074869043 12.3535156,0.224609375 C12.503256,0.374349707 12.578125,0.556639551 12.578125,0.771484375 C12.578125,0.986329199 12.5000008,1.16536387 12.34375,1.30859375 L7.3828125,6.2890625 Z" transform="translate(.71 .27)"/></svg>